<svg width="28" height="30" viewBox="0 0 28 30" fill="none" xmlns="http://www.w3.org/2000/svg">
<path d="M2.82644 29.5045H25.1739C26.7322 29.5045 28 28.088 28 26.3467V9.06903C28 7.32781 26.7322 5.91127 25.1739 5.91127H20.3933V2.87134C20.3933 1.45166 19.3598 0.296875 18.0892 0.296875H9.91107C8.64049 0.296875 7.60667 1.45166 7.60667 2.87134V5.91127H2.82644C1.26809 5.91127 0 7.32781 0 9.06903V26.3464C0 28.088 1.26809 29.5045 2.82644 29.5045ZM26.3144 26.3467C26.3144 27.0507 25.8036 27.6215 25.1736 27.6215H2.82644C2.19644 27.6215 1.6856 27.0507 1.6856 26.3467V17.2242C4.20933 18.1704 6.98973 18.8076 9.91107 19.1156V21.0667C9.91107 21.4283 10.1733 21.7213 10.4969 21.7213H17.5037C17.8273 21.7213 18.0896 21.4283 18.0896 21.0667V19.1152C21.0128 18.8069 23.7928 18.1683 26.3147 17.22L26.3144 26.3467ZM11.5964 19.8379V17.0844H16.404V19.8379H11.5964ZM9.29196 2.87134C9.29196 2.49035 9.56947 2.18027 9.91076 2.18027H18.0892C18.4302 2.18027 18.7077 2.49035 18.7077 2.87134V5.91127H9.29196V2.87134ZM1.6856 9.06903C1.6856 8.36511 2.19644 7.79432 2.82644 7.79432H25.1742C25.8042 7.79432 26.3147 8.36476 26.3147 9.06869V15.224C23.8205 16.2241 21.0358 16.8985 18.0896 17.2221V15.8552C18.0896 15.4937 17.8273 15.2007 17.5037 15.2007H10.4966C10.173 15.2007 9.91076 15.4937 9.91076 15.8552V17.2224C6.9664 16.8991 4.18196 16.2265 1.68529 15.2285V9.06903H1.6856Z" fill="white"/>
</svg>
